<svg width="15" height="15" viewBox="0 0 15 15" fill="none" xmlns="http://www.w3.org/2000/svg">
<path d="M4.6875 7.5C4.6875 8.01777 4.26777 8.4375 3.75 8.4375C3.23223 8.4375 2.8125 8.01777 2.8125 7.5C2.8125 6.98223 3.23223 6.5625 3.75 6.5625C4.26777 6.5625 4.6875 6.98223 4.6875 7.5Z" fill="#FE6B00"/>
<path d="M8.4375 7.5C8.4375 8.01777 8.01777 8.4375 7.5 8.4375C6.98223 8.4375 6.5625 8.01777 6.5625 7.5C6.5625 6.98223 6.98223 6.5625 7.5 6.5625C8.01777 6.5625 8.4375 6.98223 8.4375 7.5Z" fill="#FE6B00"/>
<path d="M11.25 8.4375C11.7678 8.4375 12.1875 8.01777 12.1875 7.5C12.1875 6.98223 11.7678 6.5625 11.25 6.5625C10.7322 6.5625 10.3125 6.98223 10.3125 7.5C10.3125 8.01777 10.7322 8.4375 11.25 8.4375Z" fill="#FE6B00"/>
<path d="M2.02937 14.8152L2.04834 14.8115C3.76344 14.4715 4.81253 14.0223 5.29953 13.7755C5.99538 13.9621 6.73429 14.0625 7.5 14.0625C11.6421 14.0625 15 11.1244 15 7.5C15 3.87563 11.6421 0.9375 7.5 0.9375C3.35786 0.9375 0 3.87563 0 7.5C0 9.15082 0.69662 10.6593 1.84667 11.8126C1.77747 12.5354 1.58833 13.311 1.35607 13.9857L1.35243 13.9963C1.32417 14.0781 1.29528 14.1584 1.26591 14.2369C1.21966 14.3606 1.17219 14.4798 1.12404 14.5935C1.05034 14.7676 1.19316 14.9628 1.37974 14.9323C1.51185 14.9106 1.64062 14.8883 1.76608 14.8653C1.85552 14.8489 1.94328 14.8322 2.02937 14.8152ZM2.77991 11.9019C2.80653 11.6238 2.70776 11.3484 2.51052 11.1506C1.51622 10.1535 0.9375 8.87633 0.9375 7.5C0.9375 4.50707 3.75413 1.875 7.5 1.875C11.2459 1.875 14.0625 4.50707 14.0625 7.5C14.0625 10.4929 11.2459 13.125 7.5 13.125C6.81634 13.125 6.15906 13.0354 5.54233 12.87C5.3192 12.8102 5.08183 12.8348 4.87577 12.9393C4.51273 13.1232 3.71406 13.4738 2.40635 13.7761C2.58283 13.1736 2.72024 12.5251 2.77991 11.9019Z" fill="#FE6B00"/>
</svg>
