<svg width="45" height="45" viewBox="0 0 45 45" fill="none" xmlns="http://www.w3.org/2000/svg">
<g clip-path="url(#clip0_4_50)">
<path d="M11.25 0C9.75816 0 8.32742 0.592632 7.27252 1.64752C6.21763 2.70242 5.625 4.13316 5.625 5.625V8.81156L2.97844 10.2234C2.07866 10.7032 1.32623 11.4185 0.801602 12.2929C0.276977 13.1673 -0.000101944 14.1678 2.81359e-08 15.1875V39.375C2.81359e-08 40.8668 0.592632 42.2976 1.64752 43.3525C2.70242 44.4074 4.13316 45 5.625 45H39.375C40.8668 45 42.2976 44.4074 43.3525 43.3525C44.4074 42.2976 45 40.8668 45 39.375V15.1875C45.0001 14.1678 44.723 13.1673 44.1984 12.2929C43.6738 11.4185 42.9213 10.7032 42.0216 10.2234L39.375 8.81156V5.625C39.375 4.13316 38.7824 2.70242 37.7275 1.64752C36.6726 0.592632 35.2418 0 33.75 0L11.25 0ZM39.375 12.0009L40.6969 12.7041C41.1472 12.9439 41.5239 13.3017 41.7865 13.7391C42.049 14.1766 42.1877 14.6773 42.1875 15.1875V17.4853L39.375 19.1728V12.0009ZM36.5625 20.8603L26.0156 27.1884L22.5 25.0791L18.9844 27.1884L8.4375 20.8603V5.625C8.4375 4.87908 8.73382 4.16371 9.26126 3.63626C9.78871 3.10882 10.5041 2.8125 11.25 2.8125H33.75C34.4959 2.8125 35.2113 3.10882 35.7387 3.63626C36.2662 4.16371 36.5625 4.87908 36.5625 5.625V20.8603ZM5.625 19.1728L2.8125 17.4853V15.1875C2.81284 14.6778 2.95171 14.1777 3.21427 13.7407C3.47682 13.3038 3.85319 12.9465 4.30312 12.7069L5.625 12.0009V19.1728ZM42.1875 20.7647V36.8916L28.7494 28.8281L42.1875 20.7647ZM42.0891 40.1147C41.9268 40.7101 41.5731 41.2356 41.0827 41.6102C40.5922 41.9848 39.9921 42.1876 39.375 42.1875H5.625C5.00749 42.1875 4.40716 41.9842 3.91665 41.6091C3.42614 41.2339 3.07272 40.7078 2.91094 40.1119L22.5 28.3584L42.0891 40.1147ZM2.8125 36.8888V20.7647L16.2506 28.8281L2.8125 36.8916V36.8888Z" fill="#DFB163"/>
</g>
<defs>
<clipPath id="clip0_4_50">
<rect width="45" height="45" fill="white"/>
</clipPath>
</defs>
</svg>
