<svg width="15" height="15" viewBox="0 0 15 15" fill="none" xmlns="http://www.w3.org/2000/svg">
<path d="M0.937247 3.28125C0.937247 2.5046 1.56685 1.875 2.3435 1.875H4.93468C5.83259 1.875 6.58543 2.39996 7.1017 2.98498C7.48591 3.42036 7.94854 3.75 8.43725 3.75H12.6566C13.4337 3.75 14.0622 4.38002 14.0622 5.15625V5.75562C14.5962 6.00437 14.9429 6.57759 14.8644 7.20567L14.2639 12.0095C14.1173 13.1823 13.1203 14.0625 11.9383 14.0625H3.06121C1.87921 14.0625 0.882173 13.1823 0.735563 12.0095L0.13509 7.20567C0.0565797 6.57759 0.403298 6.00437 0.937247 5.75562V3.28125ZM1.87475 5.625H13.1247V5.15625C13.1247 4.89694 12.9151 4.6875 12.6566 4.6875H8.43725C7.5336 4.6875 6.83363 4.09807 6.39877 3.6053C5.97519 3.12532 5.45717 2.8125 4.93468 2.8125H2.3435C2.08461 2.8125 1.87475 3.02237 1.87475 3.28125V5.625ZM1.53048 6.5625C1.24853 6.5625 1.03038 6.80962 1.06535 7.08939L1.66582 11.8932C1.75379 12.5969 2.35201 13.125 3.06121 13.125H11.9383C12.6475 13.125 13.2457 12.5969 13.3337 11.8932L13.9341 7.08939C13.9691 6.80962 13.751 6.5625 13.469 6.5625H1.53048Z" fill="#FE6B00"/>
</svg>
