<svg width="45" height="45" viewBox="0 0 45 45" fill="none" xmlns="http://www.w3.org/2000/svg">
<path d="M23.9062 14.1581V17.2519L26.5866 15.705L27.9928 18.1434L25.3125 19.6875L27.9928 21.2344L26.5866 23.67L23.9062 22.1231V25.2169H21.0938V22.1231L18.4134 23.67L17.0072 21.2344L19.6875 19.6875L17.0072 18.1406L18.4134 15.705L21.0938 17.2519V14.1581H23.9062ZM37.2656 25.3125C37.0791 25.3125 36.9003 25.3866 36.7684 25.5184C36.6366 25.6503 36.5625 25.8291 36.5625 26.0156V27.4219C36.5625 27.81 36.8775 28.125 37.2656 28.125H38.6719C38.8584 28.125 39.0372 28.0509 39.1691 27.9191C39.3009 27.7872 39.375 27.6084 39.375 27.4219V26.0156C39.375 25.8291 39.3009 25.6503 39.1691 25.5184C39.0372 25.3866 38.8584 25.3125 38.6719 25.3125H37.2656ZM36.5625 31.6406C36.5625 31.4541 36.6366 31.2753 36.7684 31.1434C36.9003 31.0116 37.0791 30.9375 37.2656 30.9375H38.6719C38.8584 30.9375 39.0372 31.0116 39.1691 31.1434C39.3009 31.2753 39.375 31.4541 39.375 31.6406V33.0469C39.375 33.2334 39.3009 33.4122 39.1691 33.5441C39.0372 33.6759 38.8584 33.75 38.6719 33.75H37.2656C37.0791 33.75 36.9003 33.6759 36.7684 33.5441C36.6366 33.4122 36.5625 33.2334 36.5625 33.0469V31.6406ZM37.2656 36.5625C37.0791 36.5625 36.9003 36.6366 36.7684 36.7684C36.6366 36.9003 36.5625 37.0791 36.5625 37.2656V38.6719C36.5625 39.06 36.8775 39.375 37.2656 39.375H38.6719C38.8584 39.375 39.0372 39.3009 39.1691 39.1691C39.3009 39.0372 39.375 38.8584 39.375 38.6719V37.2656C39.375 37.0791 39.3009 36.9003 39.1691 36.7684C39.0372 36.6366 38.8584 36.5625 38.6719 36.5625H37.2656ZM6.32812 25.3125C6.14164 25.3125 5.9628 25.3866 5.83094 25.5184C5.69908 25.6503 5.625 25.8291 5.625 26.0156V27.4219C5.625 27.81 5.94 28.125 6.32812 28.125H7.73438C7.92086 28.125 8.0997 28.0509 8.23156 27.9191C8.36342 27.7872 8.4375 27.6084 8.4375 27.4219V26.0156C8.4375 25.8291 8.36342 25.6503 8.23156 25.5184C8.0997 25.3866 7.92086 25.3125 7.73438 25.3125H6.32812ZM6.32812 30.9375C6.14164 30.9375 5.9628 31.0116 5.83094 31.1434C5.69908 31.2753 5.625 31.4541 5.625 31.6406V33.0469C5.625 33.435 5.94 33.75 6.32812 33.75H7.73438C7.92086 33.75 8.0997 33.6759 8.23156 33.5441C8.36342 33.4122 8.4375 33.2334 8.4375 33.0469V31.6406C8.4375 31.4541 8.36342 31.2753 8.23156 31.1434C8.0997 31.0116 7.92086 30.9375 7.73438 30.9375H6.32812ZM5.625 37.2656C5.625 37.0791 5.69908 36.9003 5.83094 36.7684C5.9628 36.6366 6.14164 36.5625 6.32812 36.5625H7.73438C7.92086 36.5625 8.0997 36.6366 8.23156 36.7684C8.36342 36.9003 8.4375 37.0791 8.4375 37.2656V38.6719C8.4375 38.8584 8.36342 39.0372 8.23156 39.1691C8.0997 39.3009 7.92086 39.375 7.73438 39.375H6.32812C6.14164 39.375 5.9628 39.3009 5.83094 39.1691C5.69908 39.0372 5.625 38.8584 5.625 38.6719V37.2656Z" fill="#DFB163"/>
<path d="M14.0625 2.8125C14.0625 2.06658 14.3588 1.35121 14.8863 0.823762C15.4137 0.296316 16.1291 0 16.875 0L28.125 0C28.8709 0 29.5863 0.296316 30.1137 0.823762C30.6412 1.35121 30.9375 2.06658 30.9375 2.8125V5.625C31.6834 5.625 32.3988 5.92132 32.9262 6.44876C33.4537 6.97621 33.75 7.69158 33.75 8.4375V19.6875H42.1875C42.9334 19.6875 43.6488 19.9838 44.1762 20.5113C44.7037 21.0387 45 21.7541 45 22.5V42.1875C45 42.9334 44.7037 43.6488 44.1762 44.1762C43.6488 44.7037 42.9334 45 42.1875 45H2.8125C2.06658 45 1.35121 44.7037 0.823762 44.1762C0.296316 43.6488 0 42.9334 0 42.1875V22.5C0 21.7541 0.296316 21.0387 0.823762 20.5113C1.35121 19.9838 2.06658 19.6875 2.8125 19.6875H11.25V8.4375C11.25 7.69158 11.5463 6.97621 12.0738 6.44876C12.6012 5.92132 13.3166 5.625 14.0625 5.625V2.8125ZM19.6875 42.1875H25.3125V33.75H19.6875V42.1875ZM28.125 42.1875H30.9375V8.4375H14.0625V42.1875H16.875V33.75C16.875 33.0041 17.1713 32.2887 17.6988 31.7613C18.2262 31.2338 18.9416 30.9375 19.6875 30.9375H25.3125C26.0584 30.9375 26.7738 31.2338 27.3012 31.7613C27.8287 32.2887 28.125 33.0041 28.125 33.75V42.1875ZM28.125 2.8125H16.875V5.625H28.125V2.8125ZM33.75 22.5V42.1875H42.1875V22.5H33.75ZM11.25 42.1875V22.5H2.8125V42.1875H11.25Z" fill="#DFB163"/>
<rect x="0.5" y="0.5" width="44" height="44" stroke="#DFB163"/>
</svg>
