<svg width="77" height="16" viewBox="0 0 77 16" fill="none" xmlns="http://www.w3.org/2000/svg">
<path d="M0.534091 15V4.09091H2.21023V15H0.534091ZM1.38636 2.27273C1.05966 2.27273 0.777936 2.16146 0.541193 1.93892C0.309186 1.71638 0.193182 1.44886 0.193182 1.13636C0.193182 0.823864 0.309186 0.556345 0.541193 0.333806C0.777936 0.111269 1.05966 0 1.38636 0C1.71307 0 1.99242 0.111269 2.22443 0.333806C2.46117 0.556345 2.57955 0.823864 2.57955 1.13636C2.57955 1.44886 2.46117 1.71638 2.22443 1.93892C1.99242 2.16146 1.71307 2.27273 1.38636 2.27273Z" fill="#F1BE72"/>
<path d="M9.99609 15H5.50746V0.454545H10.195C11.6059 0.454545 12.8133 0.745738 13.8171 1.32812C14.8209 1.90578 15.5903 2.73674 16.1254 3.82102C16.6604 4.90057 16.9279 6.19318 16.9279 7.69886C16.9279 9.21401 16.658 10.5185 16.1183 11.6122C15.5785 12.7012 14.7925 13.5393 13.7603 14.1264C12.7281 14.7088 11.4734 15 9.99609 15ZM7.26882 13.4375H9.88246C11.0851 13.4375 12.0818 13.2055 12.8725 12.7415C13.6632 12.2775 14.2527 11.617 14.641 10.7599C15.0292 9.90294 15.2234 8.88258 15.2234 7.69886C15.2234 6.52462 15.0316 5.51373 14.6481 4.66619C14.2646 3.81392 13.6916 3.16051 12.9293 2.70597C12.167 2.24669 11.2177 2.01705 10.0813 2.01705H7.26882V13.4375ZM19.8825 15V0.454545H28.6609V2.01705H21.6438V6.93182H28.2063V8.49432H21.6438V13.4375H28.7745V15H19.8825ZM39.7901 4.09091C39.7049 3.37121 39.3593 2.8125 38.7532 2.41477C38.1471 2.01705 37.4038 1.81818 36.5231 1.81818C35.8791 1.81818 35.3157 1.92235 34.8327 2.13068C34.3545 2.33901 33.9805 2.62547 33.7106 2.99006C33.4454 3.35464 33.3129 3.76894 33.3129 4.23295C33.3129 4.62121 33.4052 4.95502 33.5898 5.23438C33.7792 5.509 34.0207 5.73864 34.3143 5.9233C34.6078 6.10322 34.9156 6.25237 35.2376 6.37074C35.5595 6.48437 35.8555 6.5767 36.1254 6.64773L37.6026 7.04545C37.9814 7.14489 38.4028 7.2822 38.8668 7.45739C39.3356 7.63258 39.783 7.87169 40.2092 8.17472C40.64 8.47301 40.9951 8.85653 41.2745 9.32528C41.5539 9.79403 41.6935 10.3693 41.6935 11.0511C41.6935 11.8371 41.4876 12.5473 41.0756 13.1818C40.6684 13.8163 40.0719 14.3205 39.2859 14.6946C38.5046 15.0687 37.5553 15.2557 36.4379 15.2557C35.3962 15.2557 34.4942 15.0876 33.7319 14.7514C32.9743 14.4152 32.3777 13.9465 31.9421 13.3452C31.5112 12.7438 31.2674 12.0455 31.2106 11.25H33.0288C33.0761 11.7992 33.2608 12.2538 33.5827 12.6136C33.9094 12.9687 34.3214 13.2339 34.8185 13.4091C35.3204 13.5795 35.8602 13.6648 36.4379 13.6648C37.1102 13.6648 37.7139 13.5559 38.2489 13.3381C38.784 13.1155 39.2077 12.8078 39.5202 12.4148C39.8327 12.017 39.989 11.553 39.989 11.0227C39.989 10.5398 39.854 10.1468 39.5842 9.84375C39.3143 9.54072 38.9592 9.29451 38.5188 9.10511C38.0785 8.91572 37.6026 8.75 37.0913 8.60795L35.3015 8.09659C34.1651 7.76989 33.2655 7.3035 32.6026 6.69744C31.9397 6.09138 31.6083 5.2983 31.6083 4.31818C31.6083 3.50379 31.8285 2.79356 32.2688 2.1875C32.7139 1.5767 33.3105 1.10322 34.0586 0.767045C34.8114 0.426136 35.6519 0.255681 36.5799 0.255681C37.5174 0.255681 38.3507 0.423768 39.0799 0.759943C39.8091 1.09138 40.3867 1.54593 40.8129 2.12358C41.2437 2.70123 41.471 3.35701 41.4947 4.09091H39.7901ZM46.3509 0.454545V15H44.5895V0.454545H46.3509ZM59.8256 5C59.6694 4.52178 59.4634 4.09328 59.2077 3.71449C58.9568 3.33097 58.6561 3.00426 58.3058 2.73438C57.9601 2.46449 57.5671 2.25852 57.1268 2.11648C56.6864 1.97443 56.2035 1.90341 55.6779 1.90341C54.8162 1.90341 54.0326 2.12595 53.3271 2.57102C52.6216 3.0161 52.0605 3.67188 51.6438 4.53835C51.2272 5.40483 51.0188 6.4678 51.0188 7.72727C51.0188 8.98674 51.2295 10.0497 51.6509 10.9162C52.0723 11.7827 52.6429 12.4384 53.3626 12.8835C54.0823 13.3286 54.8919 13.5511 55.7915 13.5511C56.6249 13.5511 57.3588 13.3736 57.9933 13.0185C58.6325 12.6586 59.1296 12.152 59.4847 11.4986C59.8446 10.8404 60.0245 10.0663 60.0245 9.17614L60.5643 9.28977H56.1893V7.72727H61.729V9.28977C61.729 10.4877 61.4734 11.5294 60.962 12.4148C60.4554 13.3002 59.7546 13.9867 58.8597 14.4744C57.9696 14.9574 56.9469 15.1989 55.7915 15.1989C54.5037 15.1989 53.372 14.8958 52.3967 14.2898C51.426 13.6837 50.6684 12.822 50.1239 11.7045C49.5842 10.5871 49.3143 9.26136 49.3143 7.72727C49.3143 6.5767 49.4682 5.54214 49.7759 4.62358C50.0884 3.70028 50.5288 2.9143 51.0969 2.26562C51.6651 1.61695 52.3375 1.11979 53.114 0.774148C53.8905 0.428503 54.7451 0.255681 55.6779 0.255681C56.445 0.255681 57.1599 0.371685 57.8228 0.603693C58.4904 0.830965 59.0846 1.1553 59.6055 1.5767C60.131 1.99337 60.569 2.4929 60.9194 3.07528C61.2698 3.65294 61.5112 4.29451 61.6438 5H59.8256ZM76.2798 0.454545V15H74.5753L66.6491 3.57955H66.5071V15H64.7457V0.454545H66.4503L74.4048 11.9034H74.5469V0.454545H76.2798Z" fill="white"/>
</svg>
