<svg width="25" height="25" viewBox="0 0 25 25" fill="none" xmlns="http://www.w3.org/2000/svg">
<path d="M7.36739 10.2219L5.22364 12.3656C4.34449 13.2448 3.85059 14.4372 3.85059 15.6805C3.85059 16.9238 4.34449 18.1162 5.22364 18.9953C6.10279 19.8745 7.29518 20.3684 8.53848 20.3684C9.78179 20.3684 10.9742 19.8745 11.8533 18.9953L14.7096 16.1375C15.2397 15.6073 15.6349 14.9576 15.8621 14.243C16.0892 13.5285 16.1416 12.7698 16.0148 12.0308C15.8881 11.2918 15.5859 10.594 15.1337 9.99594C14.6815 9.39788 14.0924 8.91703 13.4158 8.59375L12.5002 9.50937C12.4072 9.6025 12.3264 9.70697 12.2596 9.82031C12.7823 9.97058 13.2567 10.2547 13.636 10.6445C14.0152 11.0343 14.2862 11.5163 14.4221 12.0429C14.558 12.5696 14.554 13.1225 14.4107 13.6472C14.2674 14.1718 13.9896 14.65 13.6049 15.0344L10.7502 17.8906C10.1638 18.477 9.36853 18.8064 8.53926 18.8064C7.71 18.8064 6.9147 18.477 6.32833 17.8906C5.74195 17.3042 5.41253 16.5089 5.41253 15.6797C5.41253 14.8504 5.74195 14.0551 6.32833 13.4688L7.56739 12.2313C7.39257 11.5761 7.32503 10.897 7.36739 10.2203V10.2219Z" fill="#FE6B00"/>
<path d="M10.2907 7.3001C9.76052 7.83033 9.3653 8.47999 9.13819 9.19456C8.91107 9.90913 8.85868 10.6678 8.98542 11.4068C9.11216 12.1458 9.41433 12.8436 9.86656 13.4417C10.3188 14.0397 10.9079 14.5206 11.5844 14.8439L12.7954 13.6314C12.2656 13.4893 11.7826 13.2102 11.3948 12.8223C11.007 12.4344 10.7282 11.9512 10.5863 11.4214C10.4444 10.8916 10.4445 10.3337 10.5865 9.80393C10.7285 9.27414 11.0075 8.79105 11.3954 8.40323L14.25 5.54698C14.8364 4.9606 15.6317 4.63118 16.461 4.63118C17.2902 4.63118 18.0855 4.9606 18.6719 5.54698C19.2583 6.13336 19.5877 6.92865 19.5877 7.75792C19.5877 8.58718 19.2583 9.38248 18.6719 9.96885L17.4329 11.2064C17.6079 11.8626 17.675 12.5423 17.6329 13.2173L19.7766 11.0735C20.6558 10.1944 21.1497 9.00201 21.1497 7.7587C21.1497 6.51539 20.6558 5.32301 19.7766 4.44385C18.8975 3.5647 17.7051 3.0708 16.4618 3.0708C15.2185 3.0708 14.0261 3.5647 13.1469 4.44385L10.2907 7.3001Z" fill="#FE6B00"/>
</svg>
