<svg width="45" height="45" viewBox="0 0 45 45" fill="none" xmlns="http://www.w3.org/2000/svg">
<g clip-path="url(#clip0_5_4)">
<path d="M10.2769 3.73501C10.1109 3.52143 9.90128 3.34562 9.66208 3.21926C9.42288 3.09291 9.15954 3.01889 8.88953 3.00213C8.61953 2.98537 8.34905 3.02625 8.09606 3.12206C7.84308 3.21787 7.61337 3.36641 7.4222 3.55782L4.51407 6.46876C3.15564 7.83001 2.65501 9.75657 3.24845 11.4469C5.71147 18.4432 9.71803 24.7953 14.971 30.0319C20.2076 35.2847 26.5597 39.2913 33.556 41.7544C35.2463 42.3478 37.1728 41.8472 38.5341 40.4888L41.4422 37.5806C41.6336 37.3895 41.7821 37.1598 41.878 36.9068C41.9738 36.6538 42.0146 36.3833 41.9979 36.1133C41.9811 35.8433 41.9071 35.5799 41.7808 35.3407C41.6544 35.1016 41.4786 34.892 41.265 34.7259L34.7766 29.6803C34.5484 29.5033 34.283 29.3805 34.0004 29.3211C33.7178 29.2616 33.4255 29.2671 33.1453 29.3372L26.986 30.8756C26.1638 31.0811 25.3025 31.0702 24.4858 30.844C23.6691 30.6178 22.9249 30.1839 22.3256 29.5847L15.4181 22.6744C14.8184 22.0754 14.3841 21.3314 14.1573 20.5147C13.9306 19.698 13.9193 18.8365 14.1244 18.0141L15.6656 11.8547C15.7357 11.5746 15.7412 11.2822 15.6818 10.9996C15.6223 10.717 15.4995 10.4516 15.3225 10.2234L10.2769 3.73501ZM5.29876 1.43719C5.79094 0.944864 6.38222 0.562872 7.03334 0.316584C7.68447 0.070296 8.38054 -0.0346534 9.07534 0.00870487C9.77013 0.0520632 10.4478 0.242737 11.0632 0.568065C11.6787 0.893393 12.2179 1.34593 12.645 1.89563L17.6906 8.38126C18.6159 9.57094 18.9422 11.1206 18.5766 12.5831L17.0381 18.7425C16.9586 19.0615 16.9629 19.3957 17.0506 19.7126C17.1383 20.0294 17.3065 20.3182 17.5388 20.5509L24.4491 27.4613C24.6821 27.694 24.9713 27.8624 25.2888 27.9502C25.6062 28.0379 25.9409 28.0419 26.2603 27.9619L32.4169 26.4234C33.1386 26.243 33.8919 26.229 34.6199 26.3825C35.3478 26.5359 36.0313 26.8529 36.6188 27.3094L43.1044 32.355C45.436 34.1691 45.6497 37.6144 43.5628 39.6984L40.6547 42.6066C38.5734 44.6878 35.4628 45.6019 32.5631 44.5809C25.1415 41.9696 18.403 37.7208 12.8475 32.1497C7.27676 26.595 3.02797 19.8575 0.416262 12.4369C-0.601863 9.54001 0.3122 6.42657 2.39345 4.34532L5.30157 1.43719H5.29876Z" fill="#DFB163"/>
</g>
<rect x="0.5" y="0.5" width="44" height="44" stroke="#DFB163"/>
<defs>
<clipPath id="clip0_5_4">
<rect width="45" height="45" fill="white"/>
</clipPath>
</defs>
</svg>
