<svg width="18" height="18" viewBox="0 0 18 18" fill="none" xmlns="http://www.w3.org/2000/svg">
<path d="M11.6423 2.6452L11.2888 2.29414L10.9364 2.64645L4.93645 8.64645L4.58289 9L4.93645 9.35355L10.9364 15.3536L11.2888 15.7059L11.6423 15.3548L13.0623 13.9448L13.4184 13.5913L13.0636 13.2364L8.82711 9L13.0636 4.76355L13.4184 4.40875L13.0623 4.0552L11.6423 2.6452ZM16 17.5L2 17.5C1.60217 17.5 1.22064 17.342 0.939341 17.0607C0.658035 16.7794 0.5 16.3978 0.5 16L0.5 2C0.5 1.16614 1.16614 0.5 2 0.5L16 0.5C16.8255 0.5 17.5 1.16777 17.5 2L17.5 16C17.5 16.3978 17.342 16.7794 17.0607 17.0607C16.7794 17.342 16.3978 17.5 16 17.5Z" fill="white" stroke="#DFB163"/>
</svg>
