<svg width="18" height="18" viewBox="0 0 18 18" fill="blac" xmlns="http://www.w3.org/2000/svg">
<path d="M6.3577 15.3548L6.71125 15.7059L7.06355 15.3536L13.0636 9.35355L13.4171 9L13.0636 8.64645L7.06355 2.64645L6.71125 2.29414L6.3577 2.6452L4.9377 4.0552L4.58164 4.40875L4.93645 4.76355L9.17289 9L4.93645 13.2364L4.58164 13.5913L4.9377 13.9448L6.3577 15.3548ZM2 0.5H16C16.3978 0.5 16.7794 0.658035 17.0607 0.93934C17.342 1.22064 17.5 1.60218 17.5 2V16C17.5 16.8339 16.8339 17.5 16 17.5H2C1.17451 17.5 0.5 16.8322 0.5 16V2C0.5 1.60218 0.658035 1.22064 0.93934 0.93934C1.22064 0.658035 1.60218 0.5 2 0.5Z" fill="white" stroke="#DFB163"/>
</svg>
